<svg width="393" height="76" viewBox="0 0 393 76" fill="none" xmlns="http://www.w3.org/2000/svg">
<rect width="393" height="76" fill="#F6E6E0"/>
<path d="M58.8746 46.1763L54.3419 31.9738H52.5792V29.4305H59.63V31.9738H57.4392L60.1337 40.6867L64.2383 31.0421H65.7492L69.8538 40.6867L72.372 31.9738H70.1056V29.4305H77.1565V31.9738H75.3938L70.9366 46.1763H69.3502L64.9182 35.9777L60.461 46.1763H58.8746ZM86.4562 46.3022C81.445 46.3022 78.0203 42.5501 78.0203 37.7152C78.0203 32.8552 81.5458 29.1283 86.5821 29.1283C91.5933 29.1283 95.018 32.8804 95.018 37.7152C95.018 42.5753 91.4925 46.3022 86.4562 46.3022ZM86.5317 43.6581C89.7298 43.6581 92.0717 41.1903 92.0717 37.7152C92.0717 34.2653 89.7298 31.7724 86.5317 31.7724C83.3085 31.7724 80.9666 34.2402 80.9666 37.7152C80.9666 41.1651 83.3085 43.6581 86.5317 43.6581ZM97.098 46V43.4567H98.9866V31.9738H97.098V29.4305H103.519C107.322 29.4305 110.041 31.0673 110.041 34.4416C110.041 36.5821 108.732 38.2189 106.919 38.9491L109.462 43.4567H111.351V46H107.523L104.199 39.7046C103.847 39.7298 103.519 39.7549 103.192 39.7549C102.663 39.7549 102.185 39.7549 101.832 39.7298V43.4567H103.897V46H97.098ZM103.444 37.3375C105.584 37.3375 107.095 36.2799 107.095 34.5423C107.095 32.8048 105.66 31.9738 103.368 31.9738H101.832V37.2871C102.134 37.3123 102.537 37.3375 103.444 37.3375ZM112.714 46V43.4567H114.602V31.9738H112.714V29.4305H119.513V31.9234H117.448V37.539L123.013 31.9234H121.124V29.4305H128.427V31.9738H126.639L122.006 36.5317L126.236 43.4567H128.427V46H124.448L119.84 38.4455L117.448 40.7874V43.4567H119.513V46H112.714ZM135.601 46.3022C132.328 46.3022 129.683 44.4639 129.683 42.4494C129.683 41.2658 130.389 40.4852 131.421 40.4852C132.529 40.4852 133.234 41.3162 133.234 42.122C133.234 42.5249 133.159 42.8271 133.007 43.1293C133.612 43.5574 134.544 43.8344 135.626 43.8344C137.439 43.8344 138.598 43.0286 138.598 41.5932C138.598 40.2334 137.213 39.5787 135.551 38.9995C132.479 37.8915 130.313 36.9094 130.313 33.8373C130.313 31.1932 132.453 29.1283 135.803 29.1283C138.9 29.1283 141.292 30.7147 141.292 32.7041C141.292 33.8876 140.562 34.5675 139.605 34.5675C138.447 34.5675 137.792 33.7113 137.792 32.8804C137.792 32.4774 137.868 32.3012 137.968 32.0997C137.515 31.8227 136.81 31.5961 135.777 31.5961C134.141 31.5961 133.184 32.4271 133.184 33.6358C133.184 34.9956 134.569 35.6 136.231 36.2043C139.202 37.262 141.443 38.2944 141.443 41.3666C141.443 44.5143 139.001 46.3022 135.601 46.3022ZM143.576 46V43.4567H145.465V31.9738H143.576V29.4305H150.375V31.9738H148.31V36.3554H155.965V31.9738H153.9V29.4305H160.699V31.9738H158.811V43.4567H160.699V46H153.9V43.4567H155.965V38.8484H148.31V43.4567H150.375V46H143.576ZM171.223 46.3022C166.212 46.3022 162.787 42.5501 162.787 37.7152C162.787 32.8552 166.313 29.1283 171.349 29.1283C176.36 29.1283 179.785 32.8804 179.785 37.7152C179.785 42.5753 176.259 46.3022 171.223 46.3022ZM171.299 43.6581C174.497 43.6581 176.839 41.1903 176.839 37.7152C176.839 34.2653 174.497 31.7724 171.299 31.7724C168.075 31.7724 165.733 34.2402 165.733 37.7152C165.733 41.1651 168.075 43.6581 171.299 43.6581ZM181.865 46V43.4567H183.753V31.9738H181.865V29.4305H188.538C192.089 29.4305 194.808 31.4702 194.808 34.8445C194.808 38.647 192.114 40.5104 188.211 40.5104C187.43 40.5104 186.951 40.5104 186.599 40.4852V43.4567H188.664V46H181.865ZM188.462 38.0174C190.603 38.0174 191.862 36.8087 191.862 34.8445C191.862 33.107 190.427 31.9738 188.387 31.9738H186.599V37.967C186.901 37.9922 187.304 38.0174 188.462 38.0174ZM202.49 46.3022C199.216 46.3022 196.572 44.4639 196.572 42.4494C196.572 41.2658 197.277 40.4852 198.31 40.4852C199.418 40.4852 200.123 41.3162 200.123 42.122C200.123 42.5249 200.047 42.8271 199.896 43.1293C200.501 43.5574 201.432 43.8344 202.515 43.8344C204.328 43.8344 205.487 43.0286 205.487 41.5932C205.487 40.2334 204.102 39.5787 202.44 38.9995C199.367 37.8915 197.202 36.9094 197.202 33.8373C197.202 31.1932 199.342 29.1283 202.691 29.1283C205.789 29.1283 208.181 30.7147 208.181 32.7041C208.181 33.8876 207.451 34.5675 206.494 34.5675C205.335 34.5675 204.681 33.7113 204.681 32.8804C204.681 32.4774 204.756 32.3012 204.857 32.0997C204.404 31.8227 203.699 31.5961 202.666 31.5961C201.029 31.5961 200.073 32.4271 200.073 33.6358C200.073 34.9956 201.458 35.6 203.12 36.2043C206.091 37.262 208.332 38.2944 208.332 41.3666C208.332 44.5143 205.889 46.3022 202.49 46.3022Z" fill="#142139"/>
<path d="M33 28V35.31M37 27.99V35.3C38.4733 35.7764 39.7282 36.7633 40.5386 38.0827C41.3491 39.4021 41.6619 40.9675 41.4207 42.4971C41.1795 44.0266 40.4002 45.4198 39.2231 46.4259C38.046 47.4319 36.5485 47.9847 35 47.9847C33.4516 47.9847 31.954 47.4319 30.7769 46.4259C29.5998 45.4198 28.8205 44.0266 28.5793 42.4971C28.3382 40.9675 28.651 39.4021 29.4614 38.0827C30.2718 36.7633 31.5267 35.7765 33 35.3M31.5 28H38.5M28.52 42H41.48" stroke="#142139" stroke-width="2" stroke-linecap="round" stroke-linejoin="round"/>
</svg>
