<svg width="21" height="21" viewBox="0 0 21 21" fill="none" xmlns="http://www.w3.org/2000/svg">
<path d="M9.0125 13.125H6.125C5.19674 13.125 4.3065 13.4937 3.65013 14.1501C2.99375 14.8065 2.625 15.6967 2.625 16.625V18.375M18.3751 18.3751L16.7126 16.7126M12.25 6.125C12.25 8.058 10.683 9.625 8.75 9.625C6.817 9.625 5.25 8.058 5.25 6.125C5.25 4.192 6.817 2.625 8.75 2.625C10.683 2.625 12.25 4.192 12.25 6.125ZM17.5 14.875C17.5 16.3247 16.3247 17.5 14.875 17.5C13.4253 17.5 12.25 16.3247 12.25 14.875C12.25 13.4253 13.4253 12.25 14.875 12.25C16.3247 12.25 17.5 13.4253 17.5 14.875Z" stroke="#1A2B4C" stroke-width="1.75" stroke-linecap="round" stroke-linejoin="round"/>
</svg>
