<svg xmlns="http://www.w3.org/2000/svg" width="36" height="36" viewBox="0 0 36 36" fill="none">
<g filter="url(#filter0_di_180_134)">
<path d="M27.2024 31.2025C26.6502 31.2025 26.2024 30.7547 26.2024 30.2025V29.0141H28.3908V31.2025H27.2024ZM20.6373 26.8257C20.085 26.8257 19.6373 26.378 19.6373 25.8257V25.6373C19.6373 25.085 20.085 24.6373 20.6373 24.6373H20.8257C21.378 24.6373 21.8257 25.085 21.8257 25.6373V26.8257H20.6373ZM19.6373 32.3908C19.6373 32.9431 20.085 33.3908 20.6373 33.3908H23.0141C23.5663 33.3908 24.0141 32.9431 24.0141 32.3908V32.2025C24.0141 31.6502 23.5663 31.2025 23.0141 31.2025H22.8257C22.2734 31.2025 21.8257 30.7547 21.8257 30.2025V29.0141H20.6373C20.085 29.0141 19.6373 29.4618 19.6373 30.0141V32.3908ZM28.3908 29.0141V25.6373C28.3908 25.085 28.8385 24.6373 29.3908 24.6373H30.5792V29.0141H28.3908ZM30.5792 29.0141H31.7676C32.3199 29.0141 32.7676 29.4618 32.7676 30.0141V32.3908C32.7676 32.9431 32.3199 33.3908 31.7676 33.3908H29.3908C28.8385 33.3908 28.3908 32.9431 28.3908 32.3908V31.2025H29.5792C30.1315 31.2025 30.5792 30.7547 30.5792 30.2025V29.0141ZM29.3908 22.4489C28.8385 22.4489 28.3908 22.0012 28.3908 21.4489V21.2606C28.3908 20.7083 28.8385 20.2606 29.3908 20.2606H31.7676C32.3199 20.2606 32.7676 20.7083 32.7676 21.2606V23.6373C32.7676 24.1896 32.3199 24.6373 31.7676 24.6373H30.5792V23.4489C30.5792 22.8967 30.1315 22.4489 29.5792 22.4489H29.3908ZM26.2024 23.4489C26.2024 22.8967 25.7547 22.4489 25.2024 22.4489H24.0141V25.8257C24.0141 26.378 23.5663 26.8257 23.0141 26.8257H21.8257V29.0141H26.2024V23.4489ZM20.6373 22.4489C20.085 22.4489 19.6373 22.0012 19.6373 21.4489V21.2606C19.6373 20.7083 20.085 20.2606 20.6373 20.2606H23.0141C23.5663 20.2606 24.0141 20.7083 24.0141 21.2606V22.4489H20.6373ZM6.50702 25.6373C6.50702 25.085 6.95473 24.6373 7.50702 24.6373H9.88378C10.4361 24.6373 10.8838 25.085 10.8838 25.6373V28.0141C10.8838 28.5664 10.4361 29.0141 9.88378 29.0141H7.50702C6.95473 29.0141 6.50702 28.5664 6.50702 28.0141V25.6373Z" fill="white" fill-opacity="0.8"/>
<path d="M15.4595 32.1919C15.4595 32.7442 15.0118 33.1919 14.4595 33.1919H3.32922C2.77694 33.1919 2.32922 32.7442 2.32922 32.1919V21.0616C2.32922 20.5093 2.77694 20.0616 3.32922 20.0616H14.4595C15.0118 20.0616 15.4595 20.5093 15.4595 21.0616V32.1919ZM4.5176 30.0035C4.5176 30.5558 4.96532 31.0035 5.5176 31.0035H12.2711C12.8234 31.0035 13.2711 30.5558 13.2711 30.0035V23.25C13.2711 22.6977 12.8234 22.25 12.2711 22.25H5.51761C4.96532 22.25 4.5176 22.6977 4.5176 23.25V30.0035ZM24.213 7.93134C24.213 7.37905 24.6607 6.93134 25.213 6.93134H27.5898C28.1421 6.93134 28.5898 7.37905 28.5898 7.93134V10.3081C28.5898 10.8604 28.1421 11.3081 27.5898 11.3081H25.213C24.6607 11.3081 24.213 10.8604 24.213 10.3081V7.93134Z" fill="white" fill-opacity="0.8"/>
<path d="M32.9666 14.6848C32.9666 15.2371 32.5188 15.6848 31.9666 15.6848H20.8363C20.284 15.6848 19.8363 15.2371 19.8363 14.6848V3.55457C19.8363 3.00228 20.284 2.55457 20.8363 2.55457H31.9666C32.5188 2.55457 32.9666 3.00228 32.9666 3.55457V14.6848ZM22.0247 12.4965C22.0247 13.0488 22.4724 13.4965 23.0247 13.4965H29.7782C30.3305 13.4965 30.7782 13.0488 30.7782 12.4965V5.74295C30.7782 5.19066 30.3305 4.74295 29.7782 4.74295H23.0247C22.4724 4.74295 22.0247 5.19066 22.0247 5.74295V12.4965ZM6.70599 7.93133C6.70599 7.37904 7.15371 6.93133 7.70599 6.93133H10.0828C10.635 6.93133 11.0828 7.37904 11.0828 7.93133V10.3081C11.0828 10.8604 10.635 11.3081 10.0828 11.3081H7.70599C7.15371 11.3081 6.70599 10.8604 6.70599 10.3081V7.93133Z" fill="white" fill-opacity="0.8"/>
<path d="M15.4595 14.6848C15.4595 15.2371 15.0118 15.6848 14.4595 15.6848H3.32922C2.77694 15.6848 2.32922 15.2371 2.32922 14.6848V3.55457C2.32922 3.00228 2.77694 2.55457 3.32922 2.55457H14.4595C15.0118 2.55457 15.4595 3.00228 15.4595 3.55457V14.6848ZM4.5176 12.4965C4.5176 13.0488 4.96532 13.4965 5.5176 13.4965H12.2711C12.8234 13.4965 13.2711 13.0488 13.2711 12.4965V5.74295C13.2711 5.19066 12.8234 4.74295 12.2711 4.74295H5.5176C4.96532 4.74295 4.5176 5.19066 4.5176 5.74295V12.4965Z" fill="white" fill-opacity="0.8"/>
</g>
<defs>
<filter id="filter0_di_180_134" x="0.140808" y="-0.429564" width="35.0141" height="35.8099" filterUnits="userSpaceOnUse" color-interpolation-filters="sRGB">
<feFlood flood-opacity="0" result="BackgroundImageFix"/>
<feColorMatrix in="SourceAlpha" type="matrix" values="0 0 0 0 0 0 0 0 0 0 0 0 0 0 0 0 0 0 127 0" result="hardAlpha"/>
<feOffset dy="-0.795775"/>
<feColorMatrix type="matrix" values="0 0 0 0 0 0 0 0 0 0 0 0 0 0 0 0 0 0 0.48 0"/>
<feBlend mode="normal" in2="BackgroundImageFix" result="effect1_dropShadow_180_134"/>
<feBlend mode="normal" in="SourceGraphic" in2="effect1_dropShadow_180_134" result="shape"/>
<feColorMatrix in="SourceAlpha" type="matrix" values="0 0 0 0 0 0 0 0 0 0 0 0 0 0 0 0 0 0 127 0" result="hardAlpha"/>
<feOffset dy="0.795775"/>
<feComposite in2="hardAlpha" operator="arithmetic" k2="-1" k3="1"/>
<feColorMatrix type="matrix" values="0 0 0 0 1 0 0 0 0 1 0 0 0 0 1 0 0 0 0.7 0"/>
<feBlend mode="normal" in2="shape" result="effect2_innerShadow_180_134"/>
</filter>
</defs>
</svg>