<svg width="116" height="114" viewBox="0 0 116 114" fill="none" xmlns="http://www.w3.org/2000/svg">
<path d="M115.133 5.90035V0H108.346C108.346 2.72089 106.145 4.92205 103.424 4.92205C100.703 4.92205 98.5022 2.72089 98.5022 0H93.0604C93.0604 2.72089 90.8593 4.92205 88.1384 4.92205C85.4175 4.92205 83.2163 2.72089 83.2163 0H77.7746C77.7746 2.72089 75.5734 4.92205 72.8525 4.92205C70.1316 4.92205 67.9304 2.72089 67.9304 0H62.4887C62.4887 2.72089 60.2875 4.92205 57.5666 4.92205C54.8457 4.92205 52.6446 2.72089 52.6446 0H47.2028C47.2028 2.72089 45.0016 4.92205 42.2807 4.92205C39.5599 4.92205 37.3587 2.72089 37.3587 0H31.9169C31.9169 2.72089 29.7157 4.92205 26.9949 4.92205C24.274 4.92205 22.0728 2.72089 22.0728 0H16.631C16.631 2.72089 14.4299 4.92205 11.709 4.92205C8.9881 4.92205 6.78693 2.72089 6.78693 0H0V5.90035C2.71324 5.90035 4.92205 8.10152 4.92205 10.8224C4.92205 13.5433 2.71324 15.7368 0 15.7368V21.1862C2.71324 21.1862 4.92205 23.3874 4.92205 26.1006C4.92205 28.8139 2.71324 31.0227 0 31.0227V36.4721C2.71324 36.4721 4.92205 38.6733 4.92205 41.3865C4.92205 44.0998 2.71324 46.3086 0 46.3086V51.758C2.71324 51.758 4.92205 53.9592 4.92205 56.6724C4.92205 59.3856 2.71324 61.5944 0 61.5944V67.0439C2.71324 67.0439 4.92205 69.245 4.92205 71.9583C4.92205 74.6715 2.71324 76.8803 0 76.8803V82.3297C2.71324 82.3297 4.92205 84.5309 4.92205 87.2441C4.92205 89.9574 2.71324 92.1662 0 92.1662V97.6156C2.66739 97.6156 4.84562 99.7404 4.91441 102.385C4.92205 102.431 4.92205 102.484 4.92205 102.53C4.92205 105.251 2.71324 107.452 0 107.452V113.49H6.78693C6.78693 110.769 8.9881 108.568 11.709 108.568C14.4299 108.568 16.631 110.769 16.631 113.49H22.0728C22.0728 110.769 24.274 108.568 26.9949 108.568C29.7157 108.568 31.9169 110.769 31.9169 113.49H37.3587C37.3587 110.769 39.5599 108.568 42.2807 108.568C45.0016 108.568 47.2028 110.769 47.2028 113.49H52.6446C52.6446 110.769 54.8457 108.568 57.5666 108.568C60.2875 108.568 62.4887 110.769 62.4887 113.49H67.9304C67.9304 110.769 70.1316 108.568 72.8525 108.568C75.5734 108.568 77.7746 110.769 77.7746 113.49H83.2163C83.2163 110.769 85.4175 108.568 88.1384 108.568C90.8593 108.568 93.0604 110.769 93.0604 113.49H98.5022C98.5022 110.769 100.703 108.568 103.424 108.568C106.145 108.568 108.346 110.769 108.346 113.49H115.133V107.452C112.412 107.452 110.211 105.251 110.211 102.53C110.211 102.484 110.211 102.431 110.219 102.385C110.288 99.7404 112.458 97.6156 115.133 97.6156V92.1662C112.412 92.1662 110.211 89.965 110.211 87.2441C110.211 84.5233 112.412 82.3297 115.133 82.3297V76.8803C112.412 76.8803 110.211 74.6792 110.211 71.9583C110.211 69.2374 112.412 67.0439 115.133 67.0439V61.5944C112.412 61.5944 110.211 59.3933 110.211 56.6724C110.211 53.9515 112.412 51.758 115.133 51.758V46.3086C112.412 46.3086 110.211 44.1074 110.211 41.3865C110.211 38.6656 112.412 36.4721 115.133 36.4721V31.0227C112.412 31.0227 110.211 28.8215 110.211 26.1006C110.211 23.3798 112.412 21.1862 115.133 21.1862V15.7368C112.412 15.7368 110.211 13.5356 110.211 10.8224C110.211 8.10916 112.412 5.90035 115.133 5.90035Z" fill="#F7F5EA"/>
<path d="M103.669 16.7075V96.775C103.669 99.8474 101.185 102.331 98.1124 102.331H17.0208C13.956 102.331 11.4644 99.8474 11.4644 96.775V16.7075C11.4644 13.6427 13.956 11.1511 17.0208 11.1511H98.1124C101.185 11.1511 103.669 13.6427 103.669 16.7075Z" fill="#14674A"/>
<path d="M49.8091 55.4188V60.7612H40.5382C38.0237 60.7612 35.9066 58.881 35.6085 56.3894L34.806 49.6789C34.5996 47.8981 35.4939 46.1785 37.0683 45.3378C37.1524 45.2995 37.2441 45.2537 37.3282 45.2155C37.5574 45.1085 37.7867 45.0244 38.0237 44.9633C38.6733 44.7951 39.3535 44.7875 40.0032 44.925C40.2401 44.9709 40.4694 45.0473 40.6987 45.1314C41.0656 45.2766 41.4095 45.4677 41.7305 45.7199C42.961 46.66 43.5648 48.2115 43.3814 49.7554L42.9534 53.317C42.9075 53.7297 42.9916 54.1271 43.1826 54.4558C43.5037 55.0214 44.1074 55.4035 44.8106 55.4035H49.8014L49.8091 55.4188Z" fill="#F4EBD9"/>
<path d="M80.4418 49.6866L79.6393 56.3971C79.3489 58.8887 77.2318 60.7689 74.7096 60.7689H65.4387V55.4265H70.4296C71.1327 55.4265 71.7365 55.0443 72.0575 54.4787C72.2486 54.1501 72.3403 53.7527 72.2868 53.3399L71.8588 49.7783C71.6754 48.2421 72.2791 46.6906 73.5097 45.7429C73.8307 45.4906 74.1822 45.2996 74.5415 45.1543C74.7707 45.0626 75 44.9938 75.237 44.948C75.8866 44.8104 76.5668 44.8181 77.2165 44.9862C77.4534 45.0473 77.6827 45.1314 77.912 45.2384C77.9961 45.2766 78.0878 45.3148 78.1719 45.3607C79.7539 46.2014 80.6482 47.9211 80.4342 49.7019L80.4418 49.6866Z" fill="#F4EBD9"/>
<path d="M49.8091 55.4189H45.8271V60.7614H49.8091V55.4189Z" fill="#BEA673"/>
<path d="M69.4207 55.4189H65.4387V60.7614H69.4207V55.4189Z" fill="#BEA673"/>
<path d="M67.7853 45.9111C67.7853 46.3697 67.7471 46.8359 67.686 47.3174L66.7917 63.3447L66.2644 72.9213H48.9913L48.4487 63.3447L47.5545 47.3174C47.0424 43.5495 48.6398 40.0414 51.3989 37.9013C52.1555 37.3052 52.9962 36.8237 53.921 36.4721C53.9898 36.4492 54.0663 36.4186 54.135 36.3957C54.7159 36.174 55.335 36.0135 55.977 35.9065C56.0993 35.8913 56.2368 35.8683 56.3668 35.853C56.7795 35.7995 57.1999 35.7766 57.6279 35.7766C58.0559 35.7766 58.4686 35.7995 58.8813 35.853C59.0112 35.8683 59.1488 35.8913 59.2787 35.9065C59.9055 36.0135 60.5245 36.174 61.1054 36.3957C61.1818 36.4186 61.2583 36.4492 61.327 36.4721C62.2366 36.8237 63.0849 37.3128 63.8416 37.9013C66.2567 39.7662 67.7853 42.6935 67.7853 45.9111Z" fill="#F4EBD9"/>
<path d="M51.5591 34.0569L52.0253 34.5155L53.0801 35.5396C53.3399 35.7919 53.4546 36.1511 53.3934 36.5103L53.0342 38.6045C52.8202 39.8426 54.1195 40.7903 55.2354 40.2018L57.1155 39.2082C57.4365 39.0401 57.811 39.0401 58.1321 39.2082L60.0122 40.2018C61.1281 40.7903 62.4274 39.8426 62.2134 38.6045L61.8542 36.5103C61.793 36.1511 61.9077 35.7919 62.1675 35.5396L63.2223 34.5155L63.6885 34.0569C64.5903 33.178 64.0935 31.6494 62.8477 31.4736L60.7459 31.1679C60.3867 31.1144 60.081 30.8927 59.9281 30.5717L58.9881 28.661C58.4301 27.5375 56.8251 27.5375 56.2672 28.661L55.3271 30.5717C55.1666 30.8927 54.8609 31.1144 54.5093 31.1679L52.4075 31.4736C51.1617 31.657 50.6649 33.1856 51.5668 34.0569H51.5591Z" fill="#BEA673"/>
<path d="M57.62 36.7702C58.8694 36.7702 59.8823 35.7574 59.8823 34.5079C59.8823 33.2585 58.8694 32.2456 57.62 32.2456C56.3705 32.2456 55.3577 33.2585 55.3577 34.5079C55.3577 35.7574 56.3705 36.7702 57.62 36.7702Z" fill="#F4EBD9"/>
<path d="M52.1629 60.853C52.7437 60.853 53.2176 61.3269 53.2176 61.9078V62.9701C53.2176 63.551 52.7437 64.0248 52.1629 64.0248C51.582 64.0248 51.1082 63.551 51.1082 62.9701V61.9078C51.1082 61.3269 51.582 60.853 52.1629 60.853Z" fill="#BEA673"/>
<path d="M57.6199 60.853C58.2008 60.853 58.6746 61.3269 58.6746 61.9078V62.9701C58.6746 63.551 58.2008 64.0248 57.6199 64.0248C57.039 64.0248 56.5652 63.551 56.5652 62.9701V61.9078C56.5652 61.3269 57.039 60.853 57.6199 60.853Z" fill="#BEA673"/>
<path d="M63.0848 60.853C63.6656 60.853 64.1395 61.3269 64.1395 61.9078V62.9701C64.1395 63.551 63.6656 64.0248 63.0848 64.0248C62.5039 64.0248 62.03 63.551 62.03 62.9701V61.9078C62.03 61.3269 62.5039 60.853 63.0848 60.853Z" fill="#BEA673"/>
<path d="M54.8916 55.0442C55.4725 55.0442 55.9464 55.5181 55.9464 56.0989V57.1613C55.9464 57.7422 55.4725 58.216 54.8916 58.216C54.3108 58.216 53.8369 57.7422 53.8369 57.1613V56.0989C53.8369 55.5181 54.3108 55.0442 54.8916 55.0442Z" fill="#BEA673"/>
<path d="M60.3562 55.0442C60.9371 55.0442 61.411 55.5181 61.411 56.0989V57.1613C61.411 57.7422 60.9371 58.216 60.3562 58.216C59.7754 58.216 59.3015 57.7422 59.3015 57.1613V56.0989C59.3015 55.5181 59.7754 55.0442 60.3562 55.0442Z" fill="#BEA673"/>
<path d="M52.1629 49.2434C52.7437 49.2434 53.2176 49.7173 53.2176 50.2981V51.3605C53.2176 51.9414 52.7437 52.4152 52.1629 52.4152C51.582 52.4152 51.1082 51.9414 51.1082 51.3605V50.2981C51.1082 49.7173 51.582 49.2434 52.1629 49.2434Z" fill="#BEA673"/>
<path d="M57.6199 49.2434C58.2008 49.2434 58.6746 49.7173 58.6746 50.2981V51.3605C58.6746 51.9414 58.2008 52.4152 57.6199 52.4152C57.039 52.4152 56.5652 51.9414 56.5652 51.3605V50.2981C56.5652 49.7173 57.039 49.2434 57.6199 49.2434Z" fill="#BEA673"/>
<path d="M63.0848 49.2434C63.6656 49.2434 64.1395 49.7173 64.1395 50.2981V51.3605C64.1395 51.9414 63.6656 52.4152 63.0848 52.4152C62.5039 52.4152 62.03 51.9414 62.03 51.3605V50.2981C62.03 49.7173 62.5039 49.2434 63.0848 49.2434Z" fill="#BEA673"/>
<path d="M54.8916 43.4424C55.4725 43.4424 55.9464 43.9162 55.9464 44.4971V45.5595C55.9464 46.1403 55.4725 46.6142 54.8916 46.6142C54.3108 46.6142 53.8369 46.1403 53.8369 45.5595V44.4971C53.8369 43.9162 54.3108 43.4424 54.8916 43.4424Z" fill="#BEA673"/>
<path d="M60.3562 43.4424C60.9371 43.4424 61.411 43.9162 61.411 44.4971V45.5595C61.411 46.1403 60.9371 46.6142 60.3562 46.6142C59.7754 46.6142 59.3015 46.1403 59.3015 45.5595V44.4971C59.3015 43.9162 59.7754 43.4424 60.3562 43.4424Z" fill="#BEA673"/>
<path d="M79.6471 64.4758H69.4209V72.9136H88.085C88.085 68.2514 84.3093 64.4758 79.6471 64.4758Z" fill="#BEA673"/>
<path d="M35.6009 64.4758H45.8271V72.9136H27.1631C27.1631 68.2514 30.9387 64.4758 35.6009 64.4758Z" fill="#BEA673"/>
<path d="M24.7073 91V89.0809H26.1894L26.5884 80.4163H25.0303V78.4971H28.4505L32.2888 85.4516L36.1271 78.4971H39.5283V80.4163H37.9702L38.3692 89.0809H39.8513V91H34.721V89.0809H36.2221L35.975 82.6394L32.4028 88.9099H32.1178L28.5455 82.6394L28.2985 89.0809H29.7996V91H24.7073ZM41.1872 91V89.0809H42.6123V80.4163H41.1872V78.4971H50.5169V82.0694H48.4647V80.3973H44.7595V83.7415H48.5407V85.5656H44.7595V89.0999H48.4837V87.4277H50.5359V91H41.1872ZM52.1538 91V89.0809H53.5789V80.4163H52.1538V78.4971H56.9991C59.8683 78.4971 61.9205 79.7322 61.9205 82.2784C61.9205 83.8935 60.9324 85.1286 59.5643 85.6796L61.4835 89.0809H62.9086V91H60.0203L57.5122 86.2497C57.2462 86.2687 56.9991 86.2877 56.7521 86.2877C56.3531 86.2877 55.9921 86.2877 55.726 86.2687V89.0809H57.2842V91H52.1538ZM56.9421 84.4635C58.5572 84.4635 59.6973 83.6655 59.6973 82.3544C59.6973 81.0433 58.6142 80.4163 56.8851 80.4163H55.726V84.4255C55.9541 84.4445 56.2581 84.4635 56.9421 84.4635ZM70.7203 91.228C66.8631 91.228 64.1079 88.6438 64.1079 84.7486C64.1079 80.9863 67.0341 78.2691 70.6823 78.2691C73.5895 78.2691 75.5277 79.7892 75.5277 81.2903C75.5277 82.2024 74.9386 82.8294 74.1596 82.8294C73.3045 82.8294 72.7155 82.2974 72.7155 81.4803C72.7155 81.2333 72.7725 80.9863 72.8485 80.8343C72.4875 80.5493 71.7654 80.2642 70.6253 80.2642C68.1932 80.2642 66.331 82.1264 66.331 84.7296C66.331 87.2377 68.0791 89.2329 70.7203 89.2329C72.1834 89.2329 73.3805 88.5868 74.3116 87.5798L75.7367 89.0619C74.5206 90.411 72.7155 91.228 70.7203 91.228ZM77.2786 91V89.0809H78.7037V80.4163H77.2786V78.4971H82.409V80.4163H80.8509V83.7225H86.6273V80.4163H85.0692V78.4971H90.1995V80.4163H88.7744V89.0809H90.1995V91H85.0692V89.0809H86.6273V85.6036H80.8509V89.0809H82.409V91H77.2786Z" fill="#F7F5EA"/>
</svg>
